#!OML:ASF F:\VICON\USERDATA\INSTALL\rory3\rory3.ASF
:FULLY-SPECIFIED
:DEGREES
617
root 0.555353 17.9274 -0.29183 1.3606 -31.1177 1.03306
lowerback -1.40876 -1.12964 -4.49826
upperback -0.618785 -1.45217 0.932793
thorax 0.289892 -0.722231 3.45687
lowerneck -18.8789 -4.81286 -11.7311
upperneck 25.0399 -5.27683 7.17965
head 11.8655 -2.63893 3.81434
rclavicle -9.05169e-015 -1.39149e-015
rhumerus -12.3475 53.3003 -75.1852
rradius 120.646
rwrist 45.5184
rhand 4.81058 2.75302
rfingers 7.12502
rthumb 30.1893 -24.7998
lclavicle -9.05169e-015 -1.39149e-015
lhumerus -40.7984 -31.5906 101.902
lradius 89.4517
lwrist 8.61842
lhand -19.0908 27.5559
lfingers 7.12502
lthumb 7.21746 57.4129
rfemur -7.76429 3.55115 11.0746
rtibia 23.1092
rfoot -16.0176 -9.60506
rtoes 0.726943
lfemur 1.02931 1.3085 -23.3398
ltibia 13.688
lfoot -11.3811 7.73082
ltoes -12.5882
618
root 0.548489 17.9275 -0.287948 1.3402 -31.3009 1.00947
lowerback -1.44003 -1.12086 -4.54995
upperback -0.586749 -1.43779 0.958193
thorax 0.340907 -0.716825 3.51148
lowerneck -18.8749 -4.80094 -11.7459
upperneck 25.0288 -5.27298 7.23989
head 11.862 -2.63118 3.84038
rclavicle 4.21713e-014 -6.95746e-016
rhumerus -12.3103 53.2894 -75.255
rradius 120.551
rwrist 46.169
rhand 4.93317 2.23817
rfingers 7.12502
rthumb 30.3062 -25.2932
lclavicle 4.21713e-014 -6.95746e-016
lhumerus -40.6294 -31.5625 101.842
lradius 89.3935
lwrist 8.35248
lhand -19.0436 27.3858
lfingers 7.12502
lthumb 7.26303 57.2411
rfemur -7.74825 3.65857 11.1032
rtibia 23.0727
rfoot -15.9635 -9.55422
rtoes 0.900231
lfemur 1.08622 1.33933 -23.3161
ltibia 13.7078
lfoot -11.4154 7.86643
ltoes -12.5632
619
root 0.542065 17.9269 -0.283505 1.36501 -31.4156 1.00625
lowerback -1.48021 -1.12567 -4.61167
upperback -0.588247 -1.4415 0.962741
thorax 0.363835 -0.719194 3.55005
lowerneck -18.9486 -4.78224 -11.6074
upperneck 25.0738 -5.26498 7.17354
head 11.8864 -2.62193 3.79341
rclavicle 5.57429e-014 4.47266e-015
rhumerus -12.284 53.2136 -75.3622
rradius 120.397
rwrist 46.7132
rhand 5.02912 1.70944
rfingers 7.12502
rthumb 30.3977 -25.8051
lclavicle 5.57429e-014 4.47266e-015
lhumerus -40.6168 -31.5592 101.828
lradius 89.4663
lwrist 8.29057
lhand -19.1829 27.2948
lfingers 7.12502
lthumb 7.12861 57.1548
rfemur -7.77883 3.67282 11.115
rtibia 23.0511
rfoot -15.8967 -9.51234
rtoes 0.802996
lfemur 1.09449 1.37525 -23.3115
ltibia 13.695
lfoot -11.4131 7.94701
ltoes -12.7809
620
root 0.534177 17.9278 -0.27917 1.32375 -31.578 1.02501
lowerback -1.45445 -1.11193 -4.73362
upperback -0.595078 -1.42304 0.995508
thorax 0.344287 -0.709298 3.65363
lowerneck -19.0413 -4.76318 -11.5332
upperneck 25.2023 -5.23355 7.09092
head 11.9463 -2.61166 3.75664
rclavicle 2.16869e-014 -1.39149e-015
rhumerus -12.3492 53.1517 -75.4898
rradius 120.257
rwrist 47.0409
rhand 5.20437 1.15658
rfingers 7.12502
rthumb 30.5649 -26.3269
lclavicle 2.16869e-014 -1.39149e-015
lhumerus -40.6228 -31.4685 101.906
lradius 89.4932
lwrist 8.19161
lhand -19.3971 27.4234
lfingers 7.12502
lthumb 6.92187 57.2903
rfemur -7.75575 3.78415 11.1158
rtibia 23.0247
rfoot -15.8041 -9.49031
rtoes 0.414321
lfemur 1.15983 1.3588 -23.3335
ltibia 13.6999
lfoot -11.4405 8.136
ltoes -12.7429
621
root 0.526483 17.9275 -0.276121 1.32349 -31.7931 0.925594
lowerback -1.4352 -1.05982 -4.74979
upperback -0.574285 -1.35415 1.06208
thorax 0.35006 -0.675387 3.73326
lowerneck -19.0985 -4.77963 -11.5032
upperneck 25.2359 -5.24347 7.02913
head 11.9692 -2.62038 3.72644
rclavicle -6.06486e-014 1.59028e-015
rhumerus -12.4142 53.0128 -75.5276
rradius 120.194
rwrist 47.1119
rhand 5.45682 0.740177
rfingers 7.12502
rthumb 30.8056 -26.6982
lclavicle -6.06486e-014 1.59028e-015
lhumerus -40.6051 -31.3716 102.017
lradius 89.4917
lwrist 7.98612
lhand -19.5252 27.3221
lfingers 7.12502
lthumb 6.7982 57.193
rfemur -7.71332 4.07515 11.2324
rtibia 22.9903
rfoot -15.93 -9.48879
rtoes 1.06137
lfemur 1.23667 1.32945 -23.243
ltibia 13.7238
lfoot -11.521 8.3528
ltoes -12.3882
622
root 0.520959 17.9265 -0.271869 1.38895 -31.9607 0.798845
lowerback -1.49084 -1.0153 -4.68222
upperback -0.547731 -1.29272 1.10741
thorax 0.402042 -0.646525 3.7421
lowerneck -19.1138 -4.82799 -11.5001
upperneck 25.207 -5.31701 7.0511
head 11.9699 -2.64937 3.72124
rclavicle 9.34414e-015 2.08724e-015
rhumerus -12.4756 52.8099 -75.5839
rradius 120.149
rwrist 47.0891
rhand 5.62301 0.502012
rfingers 7.12502
rthumb 30.964 -26.9063
lclavicle 9.34414e-015 2.08724e-015
lhumerus -40.5588 -31.3355 102.108
lradius 89.4409
lwrist 7.8118
lhand -19.5408 27.0732
lfingers 7.12502
lthumb 6.78309 56.9446
rfemur -7.74197 4.15642 11.3639
rtibia 22.9735
rfoot -15.8942 -9.44481
rtoes 1.04137
lfemur 1.28245 1.25838 -23.1414
ltibia 13.7074
lfoot -11.5276 8.58745
ltoes -12.1806
623
root 0.514554 17.9267 -0.267242 1.47285 -32.0523 0.692442
lowerback -1.56257 -1.00911 -4.60945
upperback -0.553167 -1.28234 1.12621
thorax 0.434517 -0.642062 3.7195
lowerneck -19.0271 -4.85622 -11.5332
upperneck 25.1514 -5.3808 7.13717
head 11.9417 -2.67138 3.74864
rclavicle 3.97722e-014 7.85199e-015
rhumerus -12.6501 52.6287 -75.7757
rradius 120.091
rwrist 47.0586
rhand 5.68777 0.199918
rfingers 7.12502
rthumb 31.0258 -27.1966
lclavicle 3.97722e-014 7.85199e-015
lhumerus -40.4797 -31.3205 102.11
lradius 89.3478
lwrist 7.73786
lhand -19.4786 26.9423
lfingers 7.12502
lthumb 6.8432 56.8117
rfemur -7.7647 4.14254 11.4699
rtibia 22.9544
rfoot -15.8281 -9.37208
rtoes 1.40186
lfemur 1.29277 1.24391 -23.0493
ltibia 13.7082
lfoot -11.4945 8.71851
ltoes -12.3192
624
root 0.507501 17.9271 -0.263326 1.45494 -32.1791 0.700937
lowerback -1.59997 -1.01659 -4.6027
upperback -0.536266 -1.29017 1.09464
thorax 0.472781 -0.647234 3.682
lowerneck -19.0776 -4.8457 -11.4892
upperneck 25.2243 -5.3782 7.13588
head 11.9781 -2.6666 3.74241
rclavicle 4.7917e-014 -9.93923e-017
rhumerus -12.7067 52.4842 -75.9692
rradius 119.978
rwrist 47.1053
rhand 5.42076 -0.0554078
rfingers 7.12502
rthumb 30.7712 -27.5002
lclavicle 4.7917e-014 -9.93923e-017
lhumerus -40.4219 -31.3342 102.034
lradius 89.333
lwrist 8.01204
lhand -19.6469 27.1204
lfingers 7.12502
lthumb 6.68073 56.995
rfemur -7.75658 4.22141 11.4765
rtibia 22.9579
rfoot -15.8123 -9.35865
rtoes 1.95967
lfemur 1.36269 1.2987 -23.056
ltibia 13.6725
lfoot -11.5355 8.80871
ltoes -12.5865
625
root 0.500605 17.9268 -0.259575 1.45394 -32.3264 0.680487
lowerback -1.63603 -1.01329 -4.57944
upperback -0.523084 -1.28414 1.0839
thorax 0.505237 -0.645256 3.65714
lowerneck -19.2786 -4.83979 -11.4383
upperneck 25.4553 -5.35825 7.07924
head 12.1028 -2.66002 3.71905
rclavicle -2.5321e-014 1.64991e-014
rhumerus -12.7506 52.2718 -76.1553
rradius 119.858
rwrist 47.2281
rhand 5.02466 -0.0571906
rfingers 7.12502
rthumb 30.3935 -27.5725
lclavicle -2.5321e-014 1.64991e-014
lhumerus -40.4438 -31.4297 102.061
lradius 89.4248
lwrist 8.80132
lhand -20.5163 27.6881
lfingers 7.12502
lthumb 5.84132 57.5876
rfemur -7.76365 4.28918 11.5114
rtibia 22.9607
rfoot -15.8067 -9.2755
rtoes 2.19182
lfemur 1.43269 1.36851 -23.0302
ltibia 13.6257
lfoot -11.5814 8.88634
ltoes -12.6024
